# xmcd
# 
# Track frame offsets:
#     150
#     20103
#     40377
#     62880
#     82990
#     103654
#     127153
#     150279
#     171232
#     191659
#     214183
#     250186
# 
# Disc length: 3516
# 
# Revision: 0
# Processed by: cddbd v1.5.2PL0 Copyright (c) Steve Scherf et al.
# Submitted via: BonkEnc v1.0
# 
DISCID=a70dba0c
DTITLE=Foo Fighters - One By One
DYEAR=2002
DGENRE=Grunge
TTITLE0=All My Life
TTITLE1=Low
TTITLE2=Have It All
TTITLE3=Times Like These (One-Way Motorway)
TTITLE4=Disenchanted Lullabye
TTITLE5=Tired
TTITLE6=Halo
TTITLE7=Lonely As You
TTITLE8=Overdrive
TTITLE9=Burn Away
TTITLE10=Come Back
TTITLE11=Danny Says
EXTD=YEAR: 2002 ID3G: 6
EXTT0=
EXTT1=
EXTT2=
EXTT3=
EXTT4=
EXTT5=
EXTT6=
EXTT7=
EXTT8=
EXTT9=
EXTT10=
EXTT11=
PLAYORDER=
